<?xml version="1.0" encoding="UTF-8" standalone="no"?>
<!-- Created with Inkscape (http://www.inkscape.org/) -->

<svg
   xmlns:dc="http://purl.org/dc/elements/1.1/"
   xmlns:cc="http://creativecommons.org/ns#"
   xmlns:rdf="http://www.w3.org/1999/02/22-rdf-syntax-ns#"
   xmlns:svg="http://www.w3.org/2000/svg"
   xmlns="http://www.w3.org/2000/svg"
   xmlns:sodipodi="http://sodipodi.sourceforge.net/DTD/sodipodi-0.dtd"
   xmlns:inkscape="http://www.inkscape.org/namespaces/inkscape"
   width="210mm"
   height="297mm"
   viewBox="0 0 210 297"
   version="1.1"
   id="svg8"
   inkscape:version="0.92.5 (2060ec1f9f, 2020-04-08)"
   sodipodi:docname="Figure2_2021Jan27.svg"
   inkscape:export-filename="D:\TGX\GitHub\lncRNA-EPI\outcome\Figure2_2021Jan27.png"
   inkscape:export-xdpi="800"
   inkscape:export-ydpi="800">
  <defs
     id="defs2">
    <clipPath
       id="clipPath66"
       clipPathUnits="userSpaceOnUse">
      <path
         inkscape:connector-curvature="0"
         id="path64"
         d="M 0,0 H 432 V 216 H 0 Z" />
    </clipPath>
    <clipPath
       id="clipPath78"
       clipPathUnits="userSpaceOnUse">
      <path
         inkscape:connector-curvature="0"
         id="path76"
         d="M 189.77,31.91 H 371.83 V 210.52 H 189.77 Z" />
    </clipPath>
    <clipPath
       id="clipPath723"
       clipPathUnits="userSpaceOnUse">
      <path
         inkscape:connector-curvature="0"
         id="path721"
         d="M 115.2,172.8 H 360 V 331.2 H 115.2 Z" />
    </clipPath>
    <clipPath
       id="clipPath741"
       clipPathUnits="userSpaceOnUse">
      <path
         inkscape:connector-curvature="0"
         id="path739"
         d="M 115.2,172.8 H 360 V 331.2 H 115.2 Z" />
    </clipPath>
    <clipPath
       id="clipPath759"
       clipPathUnits="userSpaceOnUse">
      <path
         inkscape:connector-curvature="0"
         id="path757"
         d="M 115.2,172.8 H 360 V 331.2 H 115.2 Z" />
    </clipPath>
  </defs>
  <sodipodi:namedview
     id="base"
     pagecolor="#ffffff"
     bordercolor="#666666"
     borderopacity="1.0"
     inkscape:pageopacity="0.0"
     inkscape:pageshadow="2"
     inkscape:zoom="2.1697078"
     inkscape:cx="285.83445"
     inkscape:cy="997.74187"
     inkscape:document-units="mm"
     inkscape:current-layer="g18"
     showgrid="false"
     inkscape:window-width="1920"
     inkscape:window-height="986"
     inkscape:window-x="-11"
     inkscape:window-y="-11"
     inkscape:window-maximized="1" />
  <metadata
     id="metadata5">
    <rdf:RDF>
      <cc:Work
         rdf:about="">
        <dc:format>image/svg+xml</dc:format>
        <dc:type
           rdf:resource="http://purl.org/dc/dcmitype/StillImage" />
        <dc:title></dc:title>
      </cc:Work>
    </rdf:RDF>
  </metadata>
  <g
     inkscape:label="Layer 1"
     inkscape:groupmode="layer"
     id="layer1">
    <g
       transform="matrix(0.35277777,0,0,-0.35277777,7.0463397,143.01147)"
       inkscape:label="Figure2A"
       id="g18">
      <g
         id="g20" />
      <g
         id="g22" />
      <g
         id="g24" />
      <g
         id="g26" />
      <g
         id="g28" />
      <g
         id="g30" />
      <g
         id="g32" />
      <g
         id="g34" />
      <g
         id="g36" />
      <g
         id="g38" />
      <g
         id="g40" />
      <g
         id="g42" />
      <g
         id="g44" />
      <g
         id="g46" />
      <g
         id="g48" />
      <g
         id="g50" />
      <g
         id="g52" />
      <g
         id="g54" />
      <g
         id="g56" />
      <g
         id="g58" />
      <g
         id="g60"
         transform="matrix(0.822161,0,0,0.83204095,-32.011018,221.94307)">
        <g
           clip-path="url(#clipPath66)"
           id="g62">
          <path
             inkscape:connector-curvature="0"
             id="path68"
             style="fill:#ffffff;fill-opacity:1;fill-rule:nonzero;stroke:#ffffff;stroke-width:1.07000005;stroke-linecap:round;stroke-linejoin:round;stroke-miterlimit:10;stroke-dasharray:none;stroke-opacity:1"
             d="M 0,0 H 432 V 216 H 0 Z" />
        </g>
      </g>
      <g
         id="g70" />
      <g
         id="g72"
         transform="matrix(0.822161,0,0,0.83204095,-32.011018,221.94307)">
        <g
           clip-path="url(#clipPath78)"
           id="g74">
          <path
             inkscape:connector-curvature="0"
             id="path80"
             style="fill:#ebebeb;fill-opacity:1;fill-rule:nonzero;stroke:none"
             d="M 189.77,31.91 H 371.83 V 210.52 H 189.77 Z" />
          <path
             inkscape:connector-curvature="0"
             id="path82"
             style="fill:none;stroke:#ffffff;stroke-width:0.52999997;stroke-linecap:butt;stroke-linejoin:round;stroke-miterlimit:10;stroke-dasharray:none;stroke-opacity:1"
             d="M 216.34,31.91 V 210.52" />
          <path
             inkscape:connector-curvature="0"
             id="path84"
             style="fill:none;stroke:#ffffff;stroke-width:0.52999997;stroke-linecap:butt;stroke-linejoin:round;stroke-miterlimit:10;stroke-dasharray:none;stroke-opacity:1"
             d="M 252.92,31.91 V 210.52" />
          <path
             inkscape:connector-curvature="0"
             id="path86"
             style="fill:none;stroke:#ffffff;stroke-width:0.52999997;stroke-linecap:butt;stroke-linejoin:round;stroke-miterlimit:10;stroke-dasharray:none;stroke-opacity:1"
             d="M 289.5,31.91 V 210.52" />
          <path
             inkscape:connector-curvature="0"
             id="path88"
             style="fill:none;stroke:#ffffff;stroke-width:0.52999997;stroke-linecap:butt;stroke-linejoin:round;stroke-miterlimit:10;stroke-dasharray:none;stroke-opacity:1"
             d="M 326.08,31.91 V 210.52" />
          <path
             inkscape:connector-curvature="0"
             id="path90"
             style="fill:none;stroke:#ffffff;stroke-width:0.52999997;stroke-linecap:butt;stroke-linejoin:round;stroke-miterlimit:10;stroke-dasharray:none;stroke-opacity:1"
             d="M 362.66,31.91 V 210.52" />
          <path
             inkscape:connector-curvature="0"
             id="path92"
             style="fill:none;stroke:#ffffff;stroke-width:1.07000005;stroke-linecap:butt;stroke-linejoin:round;stroke-miterlimit:10;stroke-dasharray:none;stroke-opacity:1"
             d="M 189.77,42.42 H 371.84" />
          <path
             inkscape:connector-curvature="0"
             id="path94"
             style="fill:none;stroke:#ffffff;stroke-width:1.07000005;stroke-linecap:butt;stroke-linejoin:round;stroke-miterlimit:10;stroke-dasharray:none;stroke-opacity:1"
             d="M 189.77,59.93 H 371.84" />
          <path
             inkscape:connector-curvature="0"
             id="path96"
             style="fill:none;stroke:#ffffff;stroke-width:1.07000005;stroke-linecap:butt;stroke-linejoin:round;stroke-miterlimit:10;stroke-dasharray:none;stroke-opacity:1"
             d="M 189.77,77.44 H 371.84" />
          <path
             inkscape:connector-curvature="0"
             id="path98"
             style="fill:none;stroke:#ffffff;stroke-width:1.07000005;stroke-linecap:butt;stroke-linejoin:round;stroke-miterlimit:10;stroke-dasharray:none;stroke-opacity:1"
             d="M 189.77,94.95 H 371.84" />
          <path
             inkscape:connector-curvature="0"
             id="path100"
             style="fill:none;stroke:#ffffff;stroke-width:1.07000005;stroke-linecap:butt;stroke-linejoin:round;stroke-miterlimit:10;stroke-dasharray:none;stroke-opacity:1"
             d="M 189.77,112.46 H 371.84" />
          <path
             inkscape:connector-curvature="0"
             id="path102"
             style="fill:none;stroke:#ffffff;stroke-width:1.07000005;stroke-linecap:butt;stroke-linejoin:round;stroke-miterlimit:10;stroke-dasharray:none;stroke-opacity:1"
             d="M 189.77,129.97 H 371.84" />
          <path
             inkscape:connector-curvature="0"
             id="path104"
             style="fill:none;stroke:#ffffff;stroke-width:1.07000005;stroke-linecap:butt;stroke-linejoin:round;stroke-miterlimit:10;stroke-dasharray:none;stroke-opacity:1"
             d="M 189.77,147.48 H 371.84" />
          <path
             inkscape:connector-curvature="0"
             id="path106"
             style="fill:none;stroke:#ffffff;stroke-width:1.07000005;stroke-linecap:butt;stroke-linejoin:round;stroke-miterlimit:10;stroke-dasharray:none;stroke-opacity:1"
             d="M 189.77,164.99 H 371.84" />
          <path
             inkscape:connector-curvature="0"
             id="path108"
             style="fill:none;stroke:#ffffff;stroke-width:1.07000005;stroke-linecap:butt;stroke-linejoin:round;stroke-miterlimit:10;stroke-dasharray:none;stroke-opacity:1"
             d="M 189.77,182.5 H 371.84" />
          <path
             inkscape:connector-curvature="0"
             id="path110"
             style="fill:none;stroke:#ffffff;stroke-width:1.07000005;stroke-linecap:butt;stroke-linejoin:round;stroke-miterlimit:10;stroke-dasharray:none;stroke-opacity:1"
             d="M 189.77,200.01 H 371.84" />
          <path
             inkscape:connector-curvature="0"
             id="path112"
             style="fill:none;stroke:#ffffff;stroke-width:1.07000005;stroke-linecap:butt;stroke-linejoin:round;stroke-miterlimit:10;stroke-dasharray:none;stroke-opacity:1"
             d="M 198.05,31.91 V 210.52" />
          <path
             inkscape:connector-curvature="0"
             id="path114"
             style="fill:none;stroke:#ffffff;stroke-width:1.07000005;stroke-linecap:butt;stroke-linejoin:round;stroke-miterlimit:10;stroke-dasharray:none;stroke-opacity:1"
             d="M 234.63,31.91 V 210.52" />
          <path
             inkscape:connector-curvature="0"
             id="path116"
             style="fill:none;stroke:#ffffff;stroke-width:1.07000005;stroke-linecap:butt;stroke-linejoin:round;stroke-miterlimit:10;stroke-dasharray:none;stroke-opacity:1"
             d="M 271.21,31.91 V 210.52" />
          <path
             inkscape:connector-curvature="0"
             id="path118"
             style="fill:none;stroke:#ffffff;stroke-width:1.07000005;stroke-linecap:butt;stroke-linejoin:round;stroke-miterlimit:10;stroke-dasharray:none;stroke-opacity:1"
             d="M 307.79,31.91 V 210.52" />
          <path
             inkscape:connector-curvature="0"
             id="path120"
             style="fill:none;stroke:#ffffff;stroke-width:1.07000005;stroke-linecap:butt;stroke-linejoin:round;stroke-miterlimit:10;stroke-dasharray:none;stroke-opacity:1"
             d="M 344.37,31.91 V 210.52" />
          <path
             inkscape:connector-curvature="0"
             id="path122"
             style="fill:#000000;fill-opacity:1;fill-rule:nonzero;stroke:#000000;stroke-width:0.70999998;stroke-linecap:round;stroke-linejoin:round;stroke-miterlimit:10;stroke-dasharray:none;stroke-opacity:1"
             d="m 356.8,182.5 c 0,3.72 3.04,6.76 6.76,6.76 3.72,0 6.76,-3.04 6.76,-6.76 0,-3.71 -3.04,-6.75 -6.76,-6.75 -3.72,0 -6.76,3.04 -6.76,6.75" />
          <path
             inkscape:connector-curvature="0"
             id="path124"
             style="fill:#000000;fill-opacity:1;fill-rule:nonzero;stroke:#000000;stroke-width:0.70999998;stroke-linecap:round;stroke-linejoin:round;stroke-miterlimit:10;stroke-dasharray:none;stroke-opacity:1"
             d="m 237.14,59.93 c 0,1.57 1.29,2.86 2.87,2.86 1.57,0 2.86,-1.29 2.86,-2.86 0,-1.58 -1.29,-2.87 -2.86,-2.87 -1.58,0 -2.87,1.29 -2.87,2.87" />
          <path
             inkscape:connector-curvature="0"
             id="path126"
             style="fill:#000000;fill-opacity:1;fill-rule:nonzero;stroke:#000000;stroke-width:0.70999998;stroke-linecap:round;stroke-linejoin:round;stroke-miterlimit:10;stroke-dasharray:none;stroke-opacity:1"
             d="m 231.99,112.46 c 0,1.43 1.17,2.6 2.6,2.6 1.43,0 2.6,-1.17 2.6,-2.6 0,-1.43 -1.17,-2.6 -2.6,-2.6 -1.43,0 -2.6,1.17 -2.6,2.6" />
          <path
             inkscape:connector-curvature="0"
             id="path128"
             style="fill:#000000;fill-opacity:1;fill-rule:nonzero;stroke:#000000;stroke-width:0.70999998;stroke-linecap:round;stroke-linejoin:round;stroke-miterlimit:10;stroke-dasharray:none;stroke-opacity:1"
             d="m 229.78,200.01 c 0,1.58 1.29,2.87 2.87,2.87 1.57,0 2.86,-1.29 2.86,-2.87 0,-1.57 -1.29,-2.86 -2.86,-2.86 -1.58,0 -2.87,1.29 -2.87,2.86" />
          <path
             inkscape:connector-curvature="0"
             id="path130"
             style="fill:#000000;fill-opacity:1;fill-rule:nonzero;stroke:#000000;stroke-width:0.70999998;stroke-linecap:round;stroke-linejoin:round;stroke-miterlimit:10;stroke-dasharray:none;stroke-opacity:1"
             d="m 227.11,77.44 c 0,1.24 1.02,2.25 2.26,2.25 1.24,0 2.25,-1.01 2.25,-2.25 0,-1.24 -1.01,-2.26 -2.25,-2.26 -1.24,0 -2.26,1.02 -2.26,2.26" />
          <path
             inkscape:connector-curvature="0"
             id="path132"
             style="fill:#000000;fill-opacity:1;fill-rule:nonzero;stroke:#000000;stroke-width:0.70999998;stroke-linecap:round;stroke-linejoin:round;stroke-miterlimit:10;stroke-dasharray:none;stroke-opacity:1"
             d="m 224.78,164.99 c 0,0.78 0.64,1.42 1.42,1.42 0.78,0 1.42,-0.64 1.42,-1.42 0,-0.78 -0.64,-1.42 -1.42,-1.42 -0.78,0 -1.42,0.64 -1.42,1.42" />
          <path
             inkscape:connector-curvature="0"
             id="path134"
             style="fill:#000000;fill-opacity:1;fill-rule:nonzero;stroke:#000000;stroke-width:0.70999998;stroke-linecap:round;stroke-linejoin:round;stroke-miterlimit:10;stroke-dasharray:none;stroke-opacity:1"
             d="m 222.15,42.42 c 0,1.9 1.55,3.46 3.46,3.46 1.9,0 3.46,-1.56 3.46,-3.46 0,-1.91 -1.56,-3.47 -3.46,-3.47 -1.91,0 -3.46,1.56 -3.46,3.47" />
          <path
             inkscape:connector-curvature="0"
             id="path136"
             style="fill:#000000;fill-opacity:1;fill-rule:nonzero;stroke:#000000;stroke-width:0.70999998;stroke-linecap:round;stroke-linejoin:round;stroke-miterlimit:10;stroke-dasharray:none;stroke-opacity:1"
             d="m 221.97,147.48 c 0,1.58 1.29,2.87 2.86,2.87 1.58,0 2.87,-1.29 2.87,-2.87 0,-1.57 -1.29,-2.86 -2.87,-2.86 -1.57,0 -2.86,1.29 -2.86,2.86" />
          <path
             inkscape:connector-curvature="0"
             id="path138"
             style="fill:#000000;fill-opacity:1;fill-rule:nonzero;stroke:#000000;stroke-width:0.70999998;stroke-linecap:round;stroke-linejoin:round;stroke-miterlimit:10;stroke-dasharray:none;stroke-opacity:1"
             d="m 218.69,94.95 c 0,1.9 1.55,3.46 3.46,3.46 1.9,0 3.46,-1.56 3.46,-3.46 0,-1.9 -1.56,-3.46 -3.46,-3.46 -1.91,0 -3.46,1.56 -3.46,3.46" />
          <path
             inkscape:connector-curvature="0"
             id="path140"
             style="fill:#000000;fill-opacity:1;fill-rule:nonzero;stroke:#000000;stroke-width:0.70999998;stroke-linecap:round;stroke-linejoin:round;stroke-miterlimit:10;stroke-dasharray:none;stroke-opacity:1"
             d="m 219.05,129.97 c 0,1.58 1.29,2.87 2.87,2.87 1.57,0 2.86,-1.29 2.86,-2.87 0,-1.57 -1.29,-2.86 -2.86,-2.86 -1.58,0 -2.87,1.29 -2.87,2.86" />
        </g>
      </g>
      <g
         id="g142" />
      <g
         id="g144" />
      <g
         id="g146" />
      <g
         id="g148" />
      <g
         id="g150" />
      <g
         id="g152" />
      <g
         id="g154" />
      <g
         id="g156" />
      <g
         id="g158" />
      <g
         id="g160" />
      <g
         id="g162" />
      <g
         id="g164" />
      <g
         id="g166" />
      <g
         id="g168" />
      <g
         id="g170" />
      <g
         id="g172"
         transform="matrix(0.822161,0,0,0.83204095,-32.011018,221.94307)">
        <text
           id="text176"
           style="font-variant:normal;font-weight:normal;font-size:9px;font-family:Helvetica;-inkscape-font-specification:Helvetica;writing-mode:lr-tb;fill:#4d4d4d;fill-opacity:1;fill-rule:nonzero;stroke:none"
           transform="matrix(1,0,0,-1,111.32,39.19)">
          <tspan
             id="tspan174"
             sodipodi:role="line"
             y="0"
             x="0 6.0029998 8.0010004 12.501 17.504999 22.509001 24.507 32.004002 37.007999 40.005001 42.507 47.511002 49.508999 54.008999 59.013 64.016998 68.516998">Alzheimer disease</tspan>
        </text>
        <text
           id="text180"
           style="font-variant:normal;font-weight:normal;font-size:9px;font-family:Helvetica;-inkscape-font-specification:Helvetica;writing-mode:lr-tb;fill:#4d4d4d;fill-opacity:1;fill-rule:nonzero;stroke:none"
           transform="matrix(1,0,0,-1,76.49,56.7)">
          <tspan
             id="tspan178"
             sodipodi:role="line"
             y="0"
             x="0 6.4980001 11.502 14.499 19.503 21.500999 26.504999 31.004999 33.507 40.914001 45.917999 50.417999 54.917999 56.916 61.919998 64.421997 68.921997 73.926003 78.93 81.431999 84.338997 89.343002 93.843002 96.345001 98.343002 103.347">Cardiac muscle contraction</tspan>
        </text>
        <text
           id="text184"
           style="font-variant:normal;font-weight:normal;font-size:9px;font-family:Helvetica;-inkscape-font-specification:Helvetica;writing-mode:lr-tb;fill:#4d4d4d;fill-opacity:1;fill-rule:nonzero;stroke:none"
           transform="matrix(1,0,0,-1,62.4,74.21)">
          <tspan
             id="tspan182"
             sodipodi:role="line"
             y="0"
             x="0 6.4980001 8.4960003 10.494 15.498 18 23.004 28.007999 30.51 35.009998 40.014 43.011002 48.014999 50.013 55.016998 62.379002 66.698997 71.703003 76.707001 81.710999 84.212997 88.946999 93.446999 95.948997 98.945999 105.444 111.942 119.439">Dilated cardiomyopathy (DCM)</tspan>
        </text>
        <text
           id="text188"
           style="font-variant:normal;font-weight:normal;font-size:9px;font-family:Helvetica;-inkscape-font-specification:Helvetica;writing-mode:lr-tb;fill:#4d4d4d;fill-opacity:1;fill-rule:nonzero;stroke:none"
           transform="matrix(1,0,0,-1,107.8,91.72)">
          <tspan
             id="tspan186"
             sodipodi:role="line"
             y="0"
             x="0 6.4980001 11.502 16.506001 19.007999 21.006001 26.01 31.014 33.515999 38.52 43.523998 46.026001 51.029999 53.028 57.528 62.532001 67.536003 72.036003">Huntington disease</tspan>
        </text>
        <text
           id="text192"
           style="font-variant:normal;font-weight:normal;font-size:9px;font-family:Helvetica;-inkscape-font-specification:Helvetica;writing-mode:lr-tb;fill:#4d4d4d;fill-opacity:1;fill-rule:nonzero;stroke:none"
           transform="matrix(1,0,0,-1,39.04,109.23)">
          <tspan
             id="tspan190"
             sodipodi:role="line"
             y="0"
             x="0 6.4980001 10.998 16.002001 21.006001 24.363001 26.865 29.862 34.866001 39.869999 44.874001 46.872002 51.372002 53.874001 58.374001 63.377998 66.375 71.378998 73.376999 78.380997 85.742996 90.063004 95.067001 100.071 105.075 107.577 112.311 116.811 119.313 122.31 128.808 135.306 142.80299">Hypertrophic cardiomyopathy (HCM)</tspan>
        </text>
        <text
           id="text196"
           style="font-variant:normal;font-weight:normal;font-size:9px;font-family:Helvetica;-inkscape-font-specification:Helvetica;writing-mode:lr-tb;fill:#4d4d4d;fill-opacity:1;fill-rule:nonzero;stroke:none"
           transform="matrix(1,0,0,-1,18.54,126.74)">
          <tspan
             id="tspan194"
             sodipodi:role="line"
             y="0"
             x="0 6.4980001 11.502 16.506001 21.761999 26.766001 28.764 33.264 38.268002 43.271999 48.276001 50.273998 52.271999 56.771999 59.273998 61.506001 66.510002 69.012001 71.514 76.014 78.515999 80.514 82.512001 86.787003 91.791 94.788002 97.290001 102.294 104.292 108.792 113.796 118.8 123.3 128.304 130.806 133.80299 140.30099 146.304 151.80299 156.80701 163.30499">Non−alcoholic fatty liver disease (NAFLD)</tspan>
        </text>
        <text
           id="text200"
           style="font-variant:normal;font-weight:normal;font-size:9px;font-family:Helvetica;-inkscape-font-specification:Helvetica;writing-mode:lr-tb;fill:#4d4d4d;fill-opacity:1;fill-rule:nonzero;stroke:none"
           transform="matrix(1,0,0,-1,81.25,144.25)">
          <tspan
             id="tspan198"
             sodipodi:role="line"
             y="0"
             x="0 7.0019999 11.502 13.5 18.504 23.507999 26.01 28.007999 32.283001 37.286999 39.789001 44.792999 49.797001 54.800999 59.300999 64.305 69.308998 74.313004 77.580002 82.080002 84.078003 89.082001 91.584 93.582001 98.585999">Oxidative phosphorylation</tspan>
        </text>
        <text
           id="text204"
           style="font-variant:normal;font-weight:normal;font-size:9px;font-family:Helvetica;-inkscape-font-specification:Helvetica;writing-mode:lr-tb;fill:#4d4d4d;fill-opacity:1;fill-rule:nonzero;stroke:none"
           transform="matrix(1,0,0,-1,103.82,161.76)">
          <tspan
             id="tspan202"
             sodipodi:role="line"
             y="0"
             x="0 6.4980001 11.502 16.506001 21.51 29.007 34.011002 36.513 41.516998 43.514999 48.519001 51.021 56.025002 59.382 61.883999 66.888 70.019997 72.017998 74.519997 76.517998">Rheumatoid arthritis</tspan>
        </text>
        <text
           id="text208"
           style="font-variant:normal;font-weight:normal;font-size:9px;font-family:Helvetica;-inkscape-font-specification:Helvetica;writing-mode:lr-tb;fill:#4d4d4d;fill-opacity:1;fill-rule:nonzero;stroke:none"
           transform="matrix(1,0,0,-1,144.33,179.27)">
          <tspan
             id="tspan206"
             sodipodi:role="line"
             y="0"
             x="0 6.4980001 8.4960003 13.5 18.504 23.004 28.007999 35.505001">Ribosome</tspan>
        </text>
        <text
           id="text212"
           style="font-variant:normal;font-weight:normal;font-size:9px;font-family:Helvetica;-inkscape-font-specification:Helvetica;writing-mode:lr-tb;fill:#4d4d4d;fill-opacity:1;fill-rule:nonzero;stroke:none"
           transform="matrix(1,0,0,-1,42.69,196.78)">
          <tspan
             id="tspan210"
             sodipodi:role="line"
             y="0"
             x="0 6.4980001 8.4960003 13.5 18.504 23.004 28.007999 35.505001 40.508999 43.011002 48.014999 50.013 55.016998 60.021 65.025002 70.028999 75.032997 79.532997 81.530998 86.030998 88.532997 90.530998 95.535004 98.037003 103.041 108.045 112.545 117.549 120.816 125.136 130.14 132.642 137.646">Ribosome biogenesis in eukaryotes</tspan>
        </text>
      </g>
      <g
         id="g214" />
      <g
         id="g216"
         transform="matrix(0.822161,0,0,0.83204095,-32.011018,221.94307)">
        <path
           inkscape:connector-curvature="0"
           id="path218"
           style="fill:none;stroke:#333333;stroke-width:1.07000005;stroke-linecap:butt;stroke-linejoin:round;stroke-miterlimit:10;stroke-dasharray:none;stroke-opacity:1"
           d="m 187.03,42.42 h 2.74" />
        <path
           inkscape:connector-curvature="0"
           id="path220"
           style="fill:none;stroke:#333333;stroke-width:1.07000005;stroke-linecap:butt;stroke-linejoin:round;stroke-miterlimit:10;stroke-dasharray:none;stroke-opacity:1"
           d="m 187.03,59.93 h 2.74" />
        <path
           inkscape:connector-curvature="0"
           id="path222"
           style="fill:none;stroke:#333333;stroke-width:1.07000005;stroke-linecap:butt;stroke-linejoin:round;stroke-miterlimit:10;stroke-dasharray:none;stroke-opacity:1"
           d="m 187.03,77.44 h 2.74" />
        <path
           inkscape:connector-curvature="0"
           id="path224"
           style="fill:none;stroke:#333333;stroke-width:1.07000005;stroke-linecap:butt;stroke-linejoin:round;stroke-miterlimit:10;stroke-dasharray:none;stroke-opacity:1"
           d="m 187.03,94.95 h 2.74" />
        <path
           inkscape:connector-curvature="0"
           id="path226"
           style="fill:none;stroke:#333333;stroke-width:1.07000005;stroke-linecap:butt;stroke-linejoin:round;stroke-miterlimit:10;stroke-dasharray:none;stroke-opacity:1"
           d="m 187.03,112.46 h 2.74" />
        <path
           inkscape:connector-curvature="0"
           id="path228"
           style="fill:none;stroke:#333333;stroke-width:1.07000005;stroke-linecap:butt;stroke-linejoin:round;stroke-miterlimit:10;stroke-dasharray:none;stroke-opacity:1"
           d="m 187.03,129.97 h 2.74" />
        <path
           inkscape:connector-curvature="0"
           id="path230"
           style="fill:none;stroke:#333333;stroke-width:1.07000005;stroke-linecap:butt;stroke-linejoin:round;stroke-miterlimit:10;stroke-dasharray:none;stroke-opacity:1"
           d="m 187.03,147.48 h 2.74" />
        <path
           inkscape:connector-curvature="0"
           id="path232"
           style="fill:none;stroke:#333333;stroke-width:1.07000005;stroke-linecap:butt;stroke-linejoin:round;stroke-miterlimit:10;stroke-dasharray:none;stroke-opacity:1"
           d="m 187.03,164.99 h 2.74" />
        <path
           inkscape:connector-curvature="0"
           id="path234"
           style="fill:none;stroke:#333333;stroke-width:1.07000005;stroke-linecap:butt;stroke-linejoin:round;stroke-miterlimit:10;stroke-dasharray:none;stroke-opacity:1"
           d="m 187.03,182.5 h 2.74" />
        <path
           inkscape:connector-curvature="0"
           id="path236"
           style="fill:none;stroke:#333333;stroke-width:1.07000005;stroke-linecap:butt;stroke-linejoin:round;stroke-miterlimit:10;stroke-dasharray:none;stroke-opacity:1"
           d="m 187.03,200.01 h 2.74" />
      </g>
      <g
         id="g238" />
      <g
         id="g240" />
      <g
         id="g242" />
      <g
         id="g244" />
      <g
         id="g246" />
      <g
         id="g248" />
      <g
         id="g250" />
      <g
         id="g252" />
      <g
         id="g254" />
      <g
         id="g256"
         transform="matrix(0.822161,0,0,0.83204095,-32.011018,221.94307)">
        <path
           inkscape:connector-curvature="0"
           id="path258"
           style="fill:none;stroke:#333333;stroke-width:1.07000005;stroke-linecap:butt;stroke-linejoin:round;stroke-miterlimit:10;stroke-dasharray:none;stroke-opacity:1"
           d="m 198.05,29.17 v 2.74" />
        <path
           inkscape:connector-curvature="0"
           id="path260"
           style="fill:none;stroke:#333333;stroke-width:1.07000005;stroke-linecap:butt;stroke-linejoin:round;stroke-miterlimit:10;stroke-dasharray:none;stroke-opacity:1"
           d="m 234.63,29.17 v 2.74" />
        <path
           inkscape:connector-curvature="0"
           id="path262"
           style="fill:none;stroke:#333333;stroke-width:1.07000005;stroke-linecap:butt;stroke-linejoin:round;stroke-miterlimit:10;stroke-dasharray:none;stroke-opacity:1"
           d="m 271.21,29.17 v 2.74" />
        <path
           inkscape:connector-curvature="0"
           id="path264"
           style="fill:none;stroke:#333333;stroke-width:1.07000005;stroke-linecap:butt;stroke-linejoin:round;stroke-miterlimit:10;stroke-dasharray:none;stroke-opacity:1"
           d="m 307.79,29.17 v 2.74" />
        <path
           inkscape:connector-curvature="0"
           id="path266"
           style="fill:none;stroke:#333333;stroke-width:1.07000005;stroke-linecap:butt;stroke-linejoin:round;stroke-miterlimit:10;stroke-dasharray:none;stroke-opacity:1"
           d="m 344.37,29.17 v 2.74" />
      </g>
      <g
         id="g268" />
      <g
         id="g270"
         transform="matrix(0.822161,0,0,0.83204095,-32.011018,221.94307)">
        <text
           id="text274"
           style="font-variant:normal;font-weight:normal;font-size:9px;font-family:Helvetica;-inkscape-font-specification:Helvetica;writing-mode:lr-tb;fill:#4d4d4d;fill-opacity:1;fill-rule:nonzero;stroke:none"
           transform="matrix(1,0,0,-1,195.54,20.52)">
          <tspan
             id="tspan272"
             y="0"
             x="0">0</tspan>
        </text>
        <text
           id="text278"
           style="font-variant:normal;font-weight:normal;font-size:9px;font-family:Helvetica;-inkscape-font-specification:Helvetica;writing-mode:lr-tb;fill:#4d4d4d;fill-opacity:1;fill-rule:nonzero;stroke:none"
           transform="matrix(1,0,0,-1,229.62,20.52)">
          <tspan
             id="tspan276"
             sodipodi:role="line"
             y="0"
             x="0 5.0040002">10</tspan>
        </text>
        <text
           id="text282"
           style="font-variant:normal;font-weight:normal;font-size:9px;font-family:Helvetica;-inkscape-font-specification:Helvetica;writing-mode:lr-tb;fill:#4d4d4d;fill-opacity:1;fill-rule:nonzero;stroke:none"
           transform="matrix(1,0,0,-1,266.2,20.52)">
          <tspan
             id="tspan280"
             sodipodi:role="line"
             y="0"
             x="0 5.0040002">20</tspan>
        </text>
        <text
           id="text286"
           style="font-variant:normal;font-weight:normal;font-size:9px;font-family:Helvetica;-inkscape-font-specification:Helvetica;writing-mode:lr-tb;fill:#4d4d4d;fill-opacity:1;fill-rule:nonzero;stroke:none"
           transform="matrix(1,0,0,-1,302.78,20.52)">
          <tspan
             id="tspan284"
             sodipodi:role="line"
             y="0"
             x="0 5.0040002">30</tspan>
        </text>
        <text
           id="text290"
           style="font-variant:normal;font-weight:normal;font-size:9px;font-family:Helvetica;-inkscape-font-specification:Helvetica;writing-mode:lr-tb;fill:#4d4d4d;fill-opacity:1;fill-rule:nonzero;stroke:none"
           transform="matrix(1,0,0,-1,339.36,20.52)">
          <tspan
             id="tspan288"
             sodipodi:role="line"
             y="0"
             x="0 5.0040002">40</tspan>
        </text>
      </g>
      <g
         id="g292" />
      <g
         id="g294" />
      <g
         id="g296" />
      <g
         id="g298" />
      <g
         id="g300" />
      <g
         id="g302"
         transform="matrix(0.822161,0,0,0.83204095,-32.011018,221.94307)">
        <text
           id="text306"
           style="font-variant:normal;font-weight:normal;font-size:11px;font-family:Helvetica;-inkscape-font-specification:Helvetica;writing-mode:lr-tb;fill:#000000;fill-opacity:1;fill-rule:nonzero;stroke:none"
           transform="matrix(1,0,0,-1,243.07,7.9)">
          <tspan
             id="tspan304"
             sodipodi:role="line"
             y="0"
             x="0 6.4239998 8.8660002 14.982 21.098 27.214001 33.330002 36.993 42.723999 45.782001 51.007 57.123001 59.564999 65.681 71.796997">−log10(p.value)</tspan>
        </text>
      </g>
      <g
         id="g308" />
      <g
         id="g316" />
      <g
         id="g318" />
      <g
         id="g320" />
      <g
         id="g322" />
      <g
         id="g324" />
      <g
         id="g326" />
      <g
         id="g328" />
      <g
         id="g330"
         transform="matrix(0.822161,0,0,0.83204095,-39.88573,221.94307)">
        <path
           inkscape:connector-curvature="0"
           id="path332"
           style="fill:#ffffff;fill-opacity:1;fill-rule:nonzero;stroke:none"
           d="m 382.79,73.28 h 43.73 v 95.88 h -43.73 z" />
      </g>
      <g
         id="g334" />
      <g
         id="g336" />
      <g
         id="g338" />
      <g
         id="g340"
         transform="matrix(0.822161,0,0,0.83204095,-39.88573,221.94307)">
        <text
           id="text344"
           style="font-variant:normal;font-weight:normal;font-size:11px;font-family:Helvetica;-inkscape-font-specification:Helvetica;writing-mode:lr-tb;fill:#000000;fill-opacity:1;fill-rule:nonzero;stroke:none"
           transform="matrix(1,0,0,-1,388.27,154.57)">
          <tspan
             id="tspan342"
             sodipodi:role="line"
             y="0"
             x="0 6.1160002 12.232 18.348 24.464001">genes</tspan>
        </text>
      </g>
      <g
         id="g346" />
      <g
         id="g348" />
      <g
         id="g350"
         transform="matrix(0.822161,0,0,0.83204095,-39.88573,221.94307)">
        <path
           inkscape:connector-curvature="0"
           id="path352"
           style="fill:#f2f2f2;fill-opacity:1;fill-rule:nonzero;stroke:none"
           d="m 388.27,130.6 h 17.28 v 17.28 h -17.28 z" />
      </g>
      <g
         id="g354" />
      <g
         id="g356"
         transform="matrix(0.822161,0,0,0.83204095,-39.88573,221.94307)">
        <path
           inkscape:connector-curvature="0"
           id="path358"
           style="fill:#000000;fill-opacity:1;fill-rule:nonzero;stroke:#000000;stroke-width:0.70999998;stroke-linecap:round;stroke-linejoin:round;stroke-miterlimit:10;stroke-dasharray:none;stroke-opacity:1"
           d="m 393.83,139.24 c 0,1.7 1.39,3.08 3.08,3.08 1.7,0 3.09,-1.38 3.09,-3.08 0,-1.7 -1.39,-3.09 -3.09,-3.09 -1.69,0 -3.08,1.39 -3.08,3.09" />
      </g>
      <g
         id="g360" />
      <g
         id="g362"
         transform="matrix(0.822161,0,0,0.83204095,-39.88573,221.94307)">
        <path
           inkscape:connector-curvature="0"
           id="path364"
           style="fill:#f2f2f2;fill-opacity:1;fill-rule:nonzero;stroke:none"
           d="m 388.27,113.32 h 17.28 v 17.28 h -17.28 z" />
      </g>
      <g
         id="g366" />
      <g
         id="g368"
         transform="matrix(0.822161,0,0,0.83204095,-39.88573,221.94307)">
        <path
           inkscape:connector-curvature="0"
           id="path370"
           style="fill:#000000;fill-opacity:1;fill-rule:nonzero;stroke:#000000;stroke-width:0.70999998;stroke-linecap:round;stroke-linejoin:round;stroke-miterlimit:10;stroke-dasharray:none;stroke-opacity:1"
           d="m 392.37,121.96 c 0,2.49 2.05,4.54 4.54,4.54 2.5,0 4.54,-2.05 4.54,-4.54 0,-2.5 -2.04,-4.54 -4.54,-4.54 -2.49,0 -4.54,2.04 -4.54,4.54" />
      </g>
      <g
         id="g372" />
      <g
         id="g374"
         transform="matrix(0.822161,0,0,0.83204095,-39.88573,221.94307)">
        <path
           inkscape:connector-curvature="0"
           id="path376"
           style="fill:#f2f2f2;fill-opacity:1;fill-rule:nonzero;stroke:none"
           d="m 388.27,96.04 h 17.28 v 17.28 h -17.28 z" />
      </g>
      <g
         id="g378" />
      <g
         id="g380"
         transform="matrix(0.822161,0,0,0.83204095,-39.88573,221.94307)">
        <path
           inkscape:connector-curvature="0"
           id="path382"
           style="fill:#000000;fill-opacity:1;fill-rule:nonzero;stroke:#000000;stroke-width:0.70999998;stroke-linecap:round;stroke-linejoin:round;stroke-miterlimit:10;stroke-dasharray:none;stroke-opacity:1"
           d="m 391.41,104.68 c 0,3.02 2.48,5.5 5.5,5.5 3.03,0 5.51,-2.48 5.51,-5.5 0,-3.03 -2.48,-5.51 -5.51,-5.51 -3.02,0 -5.5,2.48 -5.5,5.51" />
      </g>
      <g
         id="g384" />
      <g
         id="g386"
         transform="matrix(0.822161,0,0,0.83204095,-39.88573,221.94307)">
        <path
           inkscape:connector-curvature="0"
           id="path388"
           style="fill:#f2f2f2;fill-opacity:1;fill-rule:nonzero;stroke:none"
           d="m 388.27,78.76 h 17.28 v 17.28 h -17.28 z" />
      </g>
      <g
         id="g390" />
      <g
         id="g392"
         transform="matrix(0.822161,0,0,0.83204095,-39.88573,221.94307)">
        <path
           inkscape:connector-curvature="0"
           id="path394"
           style="fill:#000000;fill-opacity:1;fill-rule:nonzero;stroke:#000000;stroke-width:0.70999998;stroke-linecap:round;stroke-linejoin:round;stroke-miterlimit:10;stroke-dasharray:none;stroke-opacity:1"
           d="m 390.63,87.4 c 0,3.45 2.83,6.28 6.28,6.28 3.46,0 6.28,-2.83 6.28,-6.28 0,-3.46 -2.82,-6.28 -6.28,-6.28 -3.45,0 -6.28,2.82 -6.28,6.28" />
      </g>
      <g
         id="g396" />
      <g
         id="g398" />
      <g
         id="g400" />
      <g
         id="g402"
         transform="matrix(0.822161,0,0,0.83204095,-39.88573,221.94307)">
        <text
           id="text406"
           style="font-variant:normal;font-weight:normal;font-size:9px;font-family:Helvetica;-inkscape-font-specification:Helvetica;writing-mode:lr-tb;fill:#000000;fill-opacity:1;fill-rule:nonzero;stroke:none"
           transform="matrix(1,0,0,-1,411.03,136.01)">
          <tspan
             id="tspan404"
             sodipodi:role="line"
             y="0"
             x="0 5.0040002">20</tspan>
        </text>
      </g>
      <g
         id="g408" />
      <g
         id="g410" />
      <g
         id="g412" />
      <g
         id="g414" />
      <g
         id="g416"
         transform="matrix(0.822161,0,0,0.83204095,-39.88573,221.94307)">
        <text
           id="text420"
           style="font-variant:normal;font-weight:normal;font-size:9px;font-family:Helvetica;-inkscape-font-specification:Helvetica;writing-mode:lr-tb;fill:#000000;fill-opacity:1;fill-rule:nonzero;stroke:none"
           transform="matrix(1,0,0,-1,411.03,118.73)">
          <tspan
             id="tspan418"
             sodipodi:role="line"
             y="0"
             x="0 5.0040002">30</tspan>
        </text>
      </g>
      <g
         id="g422" />
      <g
         id="g424" />
      <g
         id="g426" />
      <g
         id="g428" />
      <g
         id="g430"
         transform="matrix(0.822161,0,0,0.83204095,-39.88573,221.94307)">
        <text
           id="text434"
           style="font-variant:normal;font-weight:normal;font-size:9px;font-family:Helvetica;-inkscape-font-specification:Helvetica;writing-mode:lr-tb;fill:#000000;fill-opacity:1;fill-rule:nonzero;stroke:none"
           transform="matrix(1,0,0,-1,411.03,101.45)">
          <tspan
             id="tspan432"
             sodipodi:role="line"
             y="0"
             x="0 5.0040002">40</tspan>
        </text>
      </g>
      <g
         id="g436" />
      <g
         id="g438" />
      <g
         id="g440" />
      <g
         id="g442" />
      <g
         id="g444"
         transform="matrix(0.822161,0,0,0.83204095,-39.88573,221.94307)">
        <text
           id="text448"
           style="font-variant:normal;font-weight:normal;font-size:9px;font-family:Helvetica;-inkscape-font-specification:Helvetica;writing-mode:lr-tb;fill:#000000;fill-opacity:1;fill-rule:nonzero;stroke:none"
           transform="matrix(1,0,0,-1,411.03,84.17)">
          <tspan
             id="tspan446"
             sodipodi:role="line"
             y="0"
             x="0 5.0040002">50</tspan>
        </text>
      </g>
      <g
         id="g450" />
      <g
         id="g452" />
      <g
         id="g454" />
      <g
         id="g456" />
      <g
         id="g458" />
      <g
         id="g460" />
      <g
         id="g462" />
      <g
         id="g464" />
      <g
         id="g466" />
      <g
         id="g468" />
      <g
         id="g470" />
      <g
         id="g472" />
      <g
         id="g474" />
      <flowRoot
         xml:space="preserve"
         id="flowRoot800"
         style="font-style:normal;font-variant:normal;font-weight:normal;font-stretch:normal;font-size:16px;line-height:1.25;font-family:Helvetica;-inkscape-font-specification:Helvetica;letter-spacing:0px;word-spacing:0px;writing-mode:lr-tb;direction:ltr;fill:#000000;fill-opacity:1;stroke:none"
         transform="matrix(0.75000002,0,0,-0.75000002,-15.600799,408.29333)"><flowRegion
           id="flowRegion802"
           style="writing-mode:lr-tb;direction:ltr"><rect
             id="rect804"
             width="19.818336"
             height="27.653494"
             x="5.5306988"
             y="15.919039"
             style="writing-mode:lr-tb;direction:ltr" /></flowRegion><flowPara
           id="flowPara806">A.</flowPara></flowRoot>      <flowRoot
         xml:space="preserve"
         id="flowRoot832"
         style="font-style:normal;font-variant:normal;font-weight:normal;font-stretch:normal;font-size:16px;line-height:1.25;font-family:Helvetica;-inkscape-font-specification:Helvetica;letter-spacing:0px;word-spacing:0px;writing-mode:vertical-lr;direction:rtl;fill:#000000;fill-opacity:1;stroke:none"
         transform="matrix(0.75000002,0,0,-0.75000002,-6.1068943,406.21911)"><flowRegion
           id="flowRegion834"><rect
             id="rect836"
             width="23.044579"
             height="27.192602"
             x="445.22125"
             y="13.153689" /></flowRegion><flowPara
           id="flowPara838"
           style="writing-mode:lr-tb;direction:ltr">B.</flowPara></flowRoot>    </g>
    <g
       transform="matrix(0.35277777,0,0,-0.35277777,-0.94051133,202.83402)"
       inkscape:label="Figure2B"
       id="g713">
      <g
         id="g715" />
      <g
         id="g717"
         transform="translate(181.14122,226.73532)">
        <g
           clip-path="url(#clipPath723)"
           id="g719">
          <path
             inkscape:connector-curvature="0"
             id="path725"
             style="fill:#440154;fill-opacity:1;fill-rule:nonzero;stroke:#000000;stroke-width:0.75;stroke-linecap:round;stroke-linejoin:round;stroke-miterlimit:10;stroke-dasharray:none;stroke-opacity:1"
             d="m 296.27,252 -0.03,1.86 -0.09,1.86 -0.15,1.85 -0.2,1.85 -0.27,1.84 -0.32,1.83 -0.38,1.82 -0.44,1.81 -0.5,1.79 -0.55,1.78 -0.61,1.76 -0.66,1.74 -0.72,1.71 -0.77,1.69 -0.82,1.67 -0.88,1.64 -0.93,1.61 -0.98,1.58 -1.03,1.55 -1.08,1.52 -1.12,1.48 -1.18,1.44 -1.21,1.41 -1.26,1.37 -1.31,1.32 -1.34,1.29 -1.39,1.24 -1.42,1.19 -1.46,1.16 -1.5,1.1 -1.53,1.06 -1.56,1 -1.6,0.96 -1.62,0.91 -1.66,0.85 -1.67,0.8 -1.71,0.75 -1.72,0.69 -1.75,0.64 -1.77,0.58 -1.78,0.53 -1.8,0.47 -1.81,0.41 -1.83,0.35 -1.84,0.3 -1.84,0.24 -1.85,0.18 -1.86,0.12 -1.86,0.06 h -1.86 l -1.86,-0.06 -1.85,-0.11 -1.85,-0.18 -1.85,-0.23 -1.84,-0.29 -1.82,-0.35 -1.82,-0.4 -1.8,-0.47 -1.79,-0.52 -1.76,-0.58 -1.75,-0.63 -1.73,-0.69 -1.71,-0.74 -1.68,-0.8 -1.65,-0.85 -1.63,-0.9 -1.6,-0.95 -1.56,-1 -1.54,-1.05 -1.5,-1.1 -1.46,-1.15 -1.43,-1.19 -1.39,-1.24 -1.35,-1.28 -1.3,-1.32 -1.27,-1.37 -1.22,-1.4 -1.17,-1.44 -1.13,-1.48 -1.09,-1.51 -1.03,-1.55 -0.98,-1.58 -0.94,-1.61 -0.88,-1.63 -0.83,-1.67 -0.78,-1.69 -0.72,-1.71 -0.67,-1.74 -0.61,-1.75 -0.56,-1.78 -0.5,-1.79 -0.44,-1.81 -0.39,-1.81 -0.32,-1.84 -0.27,-1.84 -0.22,-1.84 -0.15,-1.86 -0.09,-1.86 -0.04,-1.85 0.03,-1.86 0.08,-1.86 0.14,-1.86 0.2,-1.85 0.26,-1.84 0.32,-1.83 0.38,-1.82 0.43,-1.81 0.49,-1.8 0.55,-1.77 0.6,-1.76 0.66,-1.74 0.71,-1.72 0.77,-1.69 0.82,-1.67 0.87,-1.65 0.93,-1.61 0.97,-1.58 1.03,-1.56 1.07,-1.51 1.12,-1.49 1.17,-1.45 1.21,-1.41 1.26,-1.37 1.3,-1.33 1.34,-1.28 1.38,-1.25 1.42,-1.2 1.46,-1.15 1.49,-1.11 1.53,-1.06 1.56,-1.01 1.6,-0.97 1.62,-0.91 1.65,-0.86 1.67,-0.8 1.71,-0.75 1.72,-0.7 1.74,-0.64 1.77,-0.59 1.78,-0.53 1.8,-0.48 1.81,-0.41 1.83,-0.36 1.83,-0.3 1.85,-0.25 1.85,-0.18 1.85,-0.13 1.86,-0.06 1.86,-0.01 1.86,0.05 1.86,0.11 1.85,0.17 1.85,0.22 1.83,0.29 1.83,0.34 1.82,0.41 1.8,0.46 1.79,0.51 1.77,0.57 1.75,0.63 1.73,0.69 1.7,0.73 1.69,0.79 1.65,0.85 1.63,0.9 1.6,0.94 1.57,1 1.54,1.05 1.5,1.09 1.47,1.15 1.43,1.19 1.39,1.23 1.36,1.28 1.31,1.32 1.27,1.36 1.22,1.4 1.18,1.43 1.14,1.48 1.08,1.51 1.04,1.54 0.99,1.58 0.94,1.6 L 237.6,252 Z" />
          <path
             inkscape:connector-curvature="0"
             id="path727"
             style="fill:none;stroke:#000000;stroke-width:0.75;stroke-linecap:round;stroke-linejoin:round;stroke-miterlimit:10;stroke-dasharray:none;stroke-opacity:1"
             d="m 236.23336,314.27724 -0.75,-2.84" />
        </g>
      </g>
      <g
         id="g729"
         transform="translate(366.83732,281.47854)">
        <text
           id="text733"
           style="font-variant:normal;font-weight:normal;font-size:12px;font-family:Helvetica;-inkscape-font-specification:Helvetica;writing-mode:lr-tb;fill:#000000;fill-opacity:1;fill-rule:nonzero;stroke:none"
           transform="matrix(1,0,0,-1,44.45,265.29)">
          <tspan
             id="tspan731"
             sodipodi:role="line"
             y="0"
             x="0 6.6719999 10.668 17.34 20.676001 27.348 30.011999 36.683998 43.355999 49.355999 56.028 62.700001 65.363998 72.036003 78.708 82.043999 86.040001 92.711998 99.384003 102.72 109.392 116.064 126.732">protein_coding (91.84%)</tspan>
        </text>
      </g>
      <g
         id="g735"
         transform="translate(181.14122,226.73532)">
        <g
           clip-path="url(#clipPath741)"
           id="g737">
          <path
             inkscape:connector-curvature="0"
             id="path743"
             style="fill:#21908c;fill-opacity:1;fill-rule:nonzero;stroke:#000000;stroke-width:0.75;stroke-linecap:round;stroke-linejoin:round;stroke-miterlimit:10;stroke-dasharray:none;stroke-opacity:1"
             d="m 288.72,223.21 v 0 L 237.6,252 Z" />
          <path
             inkscape:connector-curvature="0"
             id="path745"
             style="fill:none;stroke:#000000;stroke-width:0.75;stroke-linecap:round;stroke-linejoin:round;stroke-miterlimit:10;stroke-dasharray:none;stroke-opacity:1"
             d="m 288.72,223.21 2.55,-1.44" />
        </g>
      </g>
      <g
         id="g747"
         transform="translate(181.14122,226.73532)">
        <text
           id="text751"
           style="font-variant:normal;font-weight:normal;font-size:12px;font-family:Helvetica;-inkscape-font-specification:Helvetica;writing-mode:lr-tb;fill:#000000;fill-opacity:1;fill-rule:nonzero;stroke:none"
           transform="matrix(1,0,0,-1,293.83,217.18)">
          <tspan
             id="tspan749"
             sodipodi:role="line"
             y="0"
             x="0 2.664 9.3360004 15.336 24 32.664001 40.667999 44.004002 48 54.672001 65.339996">lncRNA (0%)</tspan>
        </text>
      </g>
      <g
         id="g753"
         transform="translate(181.14122,226.73532)">
        <g
           clip-path="url(#clipPath759)"
           id="g755">
          <path
             inkscape:connector-curvature="0"
             id="path761"
             style="fill:#fde725;fill-opacity:1;fill-rule:nonzero;stroke:#000000;stroke-width:0.75;stroke-linecap:round;stroke-linejoin:round;stroke-miterlimit:10;stroke-dasharray:none;stroke-opacity:1"
             d="m 288.72,223.21 0.95,1.77 0.9,1.79 0.83,1.83 0.77,1.85 0.7,1.88 0.64,1.9 0.58,1.92 0.5,1.94 0.45,1.96 0.37,1.97 0.31,1.98 0.24,1.99 0.17,2 0.1,2 0.04,2.01 H 237.6 Z" />
          <path
             inkscape:connector-curvature="0"
             id="path763"
             style="fill:none;stroke:#000000;stroke-width:0.75;stroke-linecap:round;stroke-linejoin:round;stroke-miterlimit:10;stroke-dasharray:none;stroke-opacity:1"
             d="m 294.35,237.12 2.84,-0.75" />
        </g>
      </g>
      <g
         id="g765"
         transform="translate(181.14122,226.73532)">
        <text
           id="text769"
           style="font-variant:normal;font-weight:normal;font-size:12px;font-family:Helvetica;-inkscape-font-specification:Helvetica;writing-mode:lr-tb;fill:#000000;fill-opacity:1;fill-rule:nonzero;stroke:none"
           transform="matrix(1,0,0,-1,300.02,232.55)">
          <tspan
             id="tspan767"
             sodipodi:role="line"
             y="0"
             x="0 6.6719999 10.008 16.68 23.351999 27.348 34.02 40.692001 47.363998 54.035999 60.708 66.708 70.043999 74.040001 80.711998 84.047997 90.720001 97.391998 108.06">other_genes (8.16%)</tspan>
        </text>
      </g>
    </g>
  </g>
</svg>
